<svg xmlns="http://www.w3.org/2000/svg" width="760" height="440" viewBox="0 0 760 440">
<rect width="100%" height="100%" fill="white"/>
<text x="380" y="23" text-anchor="middle" font-family="sans-serif" font-size="17">Low-rate loop-area discriminator</text>
<line x1="75" y1="380" x2="735" y2="380" stroke="#111"/>
<line x1="75" y1="35" x2="75" y2="380" stroke="#111"/>
<polyline points="75.00,344.42 295.00,303.18 515.00,220.97 735.00,60.56" fill="none" stroke="#2563eb" stroke-width="3"/>
<circle cx="75.00" cy="344.42" r="4" fill="#2563eb"/>
<circle cx="295.00" cy="303.18" r="4" fill="#2563eb"/>
<circle cx="515.00" cy="220.97" r="4" fill="#2563eb"/>
<circle cx="735.00" cy="60.56" r="4" fill="#2563eb"/>
<polyline points="75.00,379.90 295.00,374.01 515.00,361.79 735.00,337.16" fill="none" stroke="#dc2626" stroke-width="3"/>
<circle cx="75.00" cy="379.90" r="4" fill="#dc2626"/>
<circle cx="295.00" cy="374.01" r="4" fill="#dc2626"/>
<circle cx="515.00" cy="361.79" r="4" fill="#dc2626"/>
<circle cx="735.00" cy="337.16" r="4" fill="#dc2626"/>
<polyline points="75.00,265.80 295.00,263.15 515.00,255.71 735.00,239.39" fill="none" stroke="#16a34a" stroke-width="3"/>
<circle cx="75.00" cy="265.80" r="4" fill="#16a34a"/>
<circle cx="295.00" cy="263.15" r="4" fill="#16a34a"/>
<circle cx="515.00" cy="255.71" r="4" fill="#16a34a"/>
<circle cx="735.00" cy="239.39" r="4" fill="#16a34a"/>
<line x1="520" y1="52" x2="548" y2="52" stroke="#2563eb" stroke-width="3"/>
<text x="556" y="57" font-family="sans-serif" font-size="12">K02_EXPONENTIAL</text>
<line x1="520" y1="74" x2="548" y2="74" stroke="#dc2626" stroke-width="3"/>
<text x="556" y="79" font-family="sans-serif" font-size="12">K04_DAMPED_RESONANCE</text>
<line x1="520" y1="96" x2="548" y2="96" stroke="#16a34a" stroke-width="3"/>
<text x="556" y="101" font-family="sans-serif" font-size="12">K05_HYSTERETIC</text>
<text x="405.0" y="425" text-anchor="middle" font-family="sans-serif" font-size="13">drive angular frequency (log scale)</text>
<text x="18" y="207.5" text-anchor="middle" transform="rotate(-90 18 207.5)" font-family="sans-serif" font-size="13">normalized loop area</text>
<text x="92" y="405" font-family="sans-serif" font-size="11" fill="#444">LTI lag tends to zero; rate-persistent hysteresis retains a finite intercept.</text>
</svg>
