<?xml version="1.0" encoding="UTF-8"?>
<svg xmlns="http://www.w3.org/2000/svg" version="1.1" width="960" height="640" viewBox="0 0 960 640">
<rect width="960" height="640" fill="#ffffff"/>
<g font-family="Arial, sans-serif" fill="#17212b">
<text x="40" y="40" font-size="22" text-anchor="start" font-weight="700">Figure 3. Cluster-level holdout performance</text>
<text x="40" y="66" font-size="12" text-anchor="start" fill="#52606d">Every cluster and observable is retained; a single counterexample is evidence, not an automatic family veto.</text>
<text x="400" y="92" font-size="14" text-anchor="middle" font-weight="700">Pressure</text>
<text x="680" y="92" font-size="14" text-anchor="middle" font-weight="700">Temperature</text>
<text x="246" y="142" font-size="12" text-anchor="end">A1644</text>
<rect x="260" y="110" width="280" height="52" fill="#cfe9ed" stroke="#ffffff"/>
<text x="400" y="142" font-size="12" text-anchor="middle" fill="#17212b">0.927</text>
<rect x="540" y="110" width="280" height="52" fill="#429da7" stroke="#ffffff"/>
<text x="680" y="142" font-size="12" text-anchor="middle" fill="#ffffff">11.770</text>
<text x="246" y="194" font-size="12" text-anchor="end">A1795</text>
<rect x="260" y="162" width="280" height="52" fill="#a4d2d8" stroke="#ffffff"/>
<text x="400" y="194" font-size="12" text-anchor="middle" fill="#17212b">2.007</text>
<rect x="540" y="162" width="280" height="52" fill="#439ea8" stroke="#ffffff"/>
<text x="680" y="194" font-size="12" text-anchor="middle" fill="#ffffff">11.504</text>
<text x="246" y="246" font-size="12" text-anchor="end">A2142</text>
<rect x="260" y="214" width="280" height="52" fill="#a3d2d7" stroke="#ffffff"/>
<text x="400" y="246" font-size="12" text-anchor="middle" fill="#17212b">2.036</text>
<rect x="540" y="214" width="280" height="52" fill="#56a8b1" stroke="#ffffff"/>
<text x="680" y="246" font-size="12" text-anchor="middle" fill="#ffffff">8.155</text>
<text x="246" y="298" font-size="12" text-anchor="end">A2255</text>
<rect x="260" y="266" width="280" height="52" fill="#84c1c8" stroke="#ffffff"/>
<text x="400" y="298" font-size="12" text-anchor="middle" fill="#17212b">3.582</text>
<rect x="540" y="266" width="280" height="52" fill="#73b8bf" stroke="#ffffff"/>
<text x="680" y="298" font-size="12" text-anchor="middle" fill="#ffffff">4.862</text>
<text x="246" y="350" font-size="12" text-anchor="end">A2319</text>
<rect x="260" y="318" width="280" height="52" fill="#62aeb7" stroke="#ffffff"/>
<text x="400" y="350" font-size="12" text-anchor="middle" fill="#ffffff">6.602</text>
<rect x="540" y="318" width="280" height="52" fill="#087e8b" stroke="#ffffff"/>
<text x="680" y="350" font-size="12" text-anchor="middle" fill="#ffffff">33.244</text>
<text x="246" y="402" font-size="12" text-anchor="end">A3266</text>
<rect x="260" y="370" width="280" height="52" fill="#90c8ce" stroke="#ffffff"/>
<text x="400" y="402" font-size="12" text-anchor="middle" fill="#17212b">2.857</text>
<rect x="540" y="370" width="280" height="52" fill="#11838f" stroke="#ffffff"/>
<text x="680" y="402" font-size="12" text-anchor="middle" fill="#ffffff">28.326</text>
<text x="246" y="454" font-size="12" text-anchor="end">A85</text>
<rect x="260" y="422" width="280" height="52" fill="#3496a1" stroke="#ffffff"/>
<text x="400" y="454" font-size="12" text-anchor="middle" fill="#ffffff">15.023</text>
<rect x="540" y="422" width="280" height="52" fill="#3c9aa5" stroke="#ffffff"/>
<text x="680" y="454" font-size="12" text-anchor="middle" fill="#ffffff">12.998</text>
<text x="246" y="506" font-size="12" text-anchor="end">ZW1215</text>
<rect x="260" y="474" width="280" height="52" fill="#e8f7f9" stroke="#ffffff"/>
<text x="400" y="506" font-size="12" text-anchor="middle" fill="#17212b">0.588</text>
<rect x="540" y="474" width="280" height="52" fill="#75b9c0" stroke="#ffffff"/>
<text x="680" y="506" font-size="12" text-anchor="middle" fill="#ffffff">4.693</text>
<rect x="260" y="560" width="5" height="16" fill="#e8f7f9"/>
<rect x="265" y="560" width="5" height="16" fill="#e6f6f8"/>
<rect x="270" y="560" width="5" height="16" fill="#e4f5f7"/>
<rect x="275" y="560" width="5" height="16" fill="#e1f3f6"/>
<rect x="280" y="560" width="5" height="16" fill="#dff2f5"/>
<rect x="285" y="560" width="5" height="16" fill="#ddf1f4"/>
<rect x="290" y="560" width="5" height="16" fill="#dbf0f2"/>
<rect x="295" y="560" width="5" height="16" fill="#d8eff1"/>
<rect x="300" y="560" width="5" height="16" fill="#d6edf0"/>
<rect x="305" y="560" width="5" height="16" fill="#d4ecef"/>
<rect x="310" y="560" width="5" height="16" fill="#d2ebee"/>
<rect x="315" y="560" width="5" height="16" fill="#cfeaed"/>
<rect x="320" y="560" width="5" height="16" fill="#cde8ec"/>
<rect x="325" y="560" width="5" height="16" fill="#cbe7eb"/>
<rect x="330" y="560" width="5" height="16" fill="#c9e6ea"/>
<rect x="335" y="560" width="5" height="16" fill="#c6e5e8"/>
<rect x="340" y="560" width="5" height="16" fill="#c4e4e7"/>
<rect x="345" y="560" width="5" height="16" fill="#c2e2e6"/>
<rect x="350" y="560" width="5" height="16" fill="#c0e1e5"/>
<rect x="355" y="560" width="5" height="16" fill="#bde0e4"/>
<rect x="360" y="560" width="5" height="16" fill="#bbdfe3"/>
<rect x="365" y="560" width="5" height="16" fill="#b9dee2"/>
<rect x="370" y="560" width="5" height="16" fill="#b7dce1"/>
<rect x="375" y="560" width="5" height="16" fill="#b4dbe0"/>
<rect x="380" y="560" width="5" height="16" fill="#b2dadf"/>
<rect x="385" y="560" width="5" height="16" fill="#b0d9de"/>
<rect x="390" y="560" width="5" height="16" fill="#aed8dc"/>
<rect x="395" y="560" width="5" height="16" fill="#acd6db"/>
<rect x="400" y="560" width="5" height="16" fill="#a9d5da"/>
<rect x="405" y="560" width="5" height="16" fill="#a7d4d9"/>
<rect x="410" y="560" width="5" height="16" fill="#a5d3d8"/>
<rect x="415" y="560" width="5" height="16" fill="#a3d1d7"/>
<rect x="420" y="560" width="5" height="16" fill="#a0d0d6"/>
<rect x="425" y="560" width="5" height="16" fill="#9ecfd5"/>
<rect x="430" y="560" width="5" height="16" fill="#9cced4"/>
<rect x="435" y="560" width="5" height="16" fill="#9acdd2"/>
<rect x="440" y="560" width="5" height="16" fill="#97cbd1"/>
<rect x="445" y="560" width="5" height="16" fill="#95cad0"/>
<rect x="450" y="560" width="5" height="16" fill="#93c9cf"/>
<rect x="455" y="560" width="5" height="16" fill="#91c8ce"/>
<rect x="460" y="560" width="5" height="16" fill="#8ec7cd"/>
<rect x="465" y="560" width="5" height="16" fill="#8cc5cc"/>
<rect x="470" y="560" width="5" height="16" fill="#8ac4cb"/>
<rect x="475" y="560" width="5" height="16" fill="#88c3ca"/>
<rect x="480" y="560" width="5" height="16" fill="#85c2c9"/>
<rect x="485" y="560" width="5" height="16" fill="#83c1c8"/>
<rect x="490" y="560" width="5" height="16" fill="#81bfc6"/>
<rect x="495" y="560" width="5" height="16" fill="#7fbec5"/>
<rect x="500" y="560" width="5" height="16" fill="#7cbdc4"/>
<rect x="505" y="560" width="5" height="16" fill="#7abcc3"/>
<rect x="510" y="560" width="5" height="16" fill="#78bac2"/>
<rect x="515" y="560" width="5" height="16" fill="#76b9c1"/>
<rect x="520" y="560" width="5" height="16" fill="#74b8c0"/>
<rect x="525" y="560" width="5" height="16" fill="#71b7bf"/>
<rect x="530" y="560" width="5" height="16" fill="#6fb6be"/>
<rect x="535" y="560" width="5" height="16" fill="#6db4bc"/>
<rect x="540" y="560" width="5" height="16" fill="#6bb3bb"/>
<rect x="545" y="560" width="5" height="16" fill="#68b2ba"/>
<rect x="550" y="560" width="5" height="16" fill="#66b1b9"/>
<rect x="555" y="560" width="5" height="16" fill="#64b0b8"/>
<rect x="560" y="560" width="5" height="16" fill="#62aeb7"/>
<rect x="565" y="560" width="5" height="16" fill="#5fadb6"/>
<rect x="570" y="560" width="5" height="16" fill="#5dacb5"/>
<rect x="575" y="560" width="5" height="16" fill="#5babb4"/>
<rect x="580" y="560" width="5" height="16" fill="#59aab3"/>
<rect x="585" y="560" width="5" height="16" fill="#56a8b2"/>
<rect x="590" y="560" width="5" height="16" fill="#54a7b0"/>
<rect x="595" y="560" width="5" height="16" fill="#52a6af"/>
<rect x="600" y="560" width="5" height="16" fill="#50a5ae"/>
<rect x="605" y="560" width="5" height="16" fill="#4da4ad"/>
<rect x="610" y="560" width="5" height="16" fill="#4ba2ac"/>
<rect x="615" y="560" width="5" height="16" fill="#49a1ab"/>
<rect x="620" y="560" width="5" height="16" fill="#47a0aa"/>
<rect x="625" y="560" width="5" height="16" fill="#449fa9"/>
<rect x="630" y="560" width="5" height="16" fill="#429da8"/>
<rect x="635" y="560" width="5" height="16" fill="#409ca6"/>
<rect x="640" y="560" width="5" height="16" fill="#3e9ba5"/>
<rect x="645" y="560" width="5" height="16" fill="#3c9aa4"/>
<rect x="650" y="560" width="5" height="16" fill="#3999a3"/>
<rect x="655" y="560" width="5" height="16" fill="#3797a2"/>
<rect x="660" y="560" width="5" height="16" fill="#3596a1"/>
<rect x="665" y="560" width="5" height="16" fill="#3395a0"/>
<rect x="670" y="560" width="5" height="16" fill="#30949f"/>
<rect x="675" y="560" width="5" height="16" fill="#2e939e"/>
<rect x="680" y="560" width="5" height="16" fill="#2c919d"/>
<rect x="685" y="560" width="5" height="16" fill="#2a909c"/>
<rect x="690" y="560" width="5" height="16" fill="#278f9a"/>
<rect x="695" y="560" width="5" height="16" fill="#258e99"/>
<rect x="700" y="560" width="5" height="16" fill="#238d98"/>
<rect x="705" y="560" width="5" height="16" fill="#218b97"/>
<rect x="710" y="560" width="5" height="16" fill="#1e8a96"/>
<rect x="715" y="560" width="5" height="16" fill="#1c8995"/>
<rect x="720" y="560" width="5" height="16" fill="#1a8894"/>
<rect x="725" y="560" width="5" height="16" fill="#188693"/>
<rect x="730" y="560" width="5" height="16" fill="#158592"/>
<rect x="735" y="560" width="5" height="16" fill="#138490"/>
<rect x="740" y="560" width="5" height="16" fill="#11838f"/>
<rect x="745" y="560" width="5" height="16" fill="#0f828e"/>
<rect x="750" y="560" width="5" height="16" fill="#0c808d"/>
<rect x="755" y="560" width="5" height="16" fill="#0a7f8c"/>
<rect x="760" y="560" width="5" height="16" fill="#087e8b"/>
<text x="260" y="595" font-size="10" text-anchor="start">0.588</text>
<text x="765" y="595" font-size="10" text-anchor="end">33.2</text>
<text x="512" y="595" font-size="11" text-anchor="middle">score (log color scale; lower is better)</text>
</g>
</svg>
