<?xml version="1.0" encoding="UTF-8"?>
<svg xmlns="http://www.w3.org/2000/svg" version="1.1" width="960" height="640" viewBox="0 0 960 640">
<rect width="960" height="640" fill="#ffffff"/>
<g font-family="Arial, sans-serif" fill="#17212b">
<text x="40" y="40" font-size="22" text-anchor="start" font-weight="700">Figure 2. Matched development-holdout comparison</text>
<text x="40" y="66" font-size="12" text-anchor="start" fill="#52606d">Absolute scores are shown; relative improvement alone is not a publication claim.</text>
<line x1="330" y1="90" x2="330" y2="545" stroke="#e7ebef"/>
<text x="330" y="570" font-size="10" text-anchor="middle" fill="#52606d">10^0.9</text>
<line x1="444" y1="90" x2="444" y2="545" stroke="#e7ebef"/>
<text x="444" y="570" font-size="10" text-anchor="middle" fill="#52606d">10^1.3</text>
<line x1="558" y1="90" x2="558" y2="545" stroke="#e7ebef"/>
<text x="558" y="570" font-size="10" text-anchor="middle" fill="#52606d">10^1.7</text>
<line x1="672" y1="90" x2="672" y2="545" stroke="#e7ebef"/>
<text x="672" y="570" font-size="10" text-anchor="middle" fill="#52606d">10^2.1</text>
<line x1="786" y1="90" x2="786" y2="545" stroke="#e7ebef"/>
<text x="786" y="570" font-size="10" text-anchor="middle" fill="#52606d">10^2.5</text>
<line x1="900" y1="90" x2="900" y2="545" stroke="#e7ebef"/>
<text x="900" y="570" font-size="10" text-anchor="middle" fill="#52606d">10^2.9</text>
<text x="318" y="131" font-size="11" text-anchor="end">ITEM59 CROSS SCALE BOUNDARY</text>
<rect x="330" y="110" width="27.659" height="28" rx="3" fill="#087e8b"/>
<text x="365.659" y="130" font-size="11" text-anchor="start">9.323</text>
<text x="318" y="193" font-size="11" text-anchor="end">GR PLUS NFW</text>
<rect x="330" y="172" width="165.891" height="28" rx="3" fill="#9aa5b1"/>
<text x="503.891" y="192" font-size="11" text-anchor="start">28.438</text>
<text x="318" y="255" font-size="11" text-anchor="end">GR PLUS EINASTO</text>
<rect x="330" y="234" width="176.232" height="28" rx="3" fill="#9aa5b1"/>
<text x="514.232" y="254" font-size="11" text-anchor="start">30.913</text>
<text x="318" y="317" font-size="11" text-anchor="end">GNFW PRESSURE SHAPE</text>
<rect x="330" y="296" width="265.029" height="28" rx="3" fill="#9aa5b1"/>
<text x="603.029" y="316" font-size="11" text-anchor="start">63.279</text>
<text x="318" y="379" font-size="11" text-anchor="end">GENERIC RBF PRESSURE CEILING</text>
<rect x="330" y="358" width="390.537" height="28" rx="3" fill="#9aa5b1"/>
<text x="728.537" y="378" font-size="11" text-anchor="start">174.184</text>
<text x="318" y="441" font-size="11" text-anchor="end">FLEXIBLE HSE MONOTONE PRESSURE RECONSTRUCTION</text>
<rect x="330" y="420" width="445.999" height="28" rx="3" fill="#9aa5b1"/>
<text x="783.999" y="440" font-size="11" text-anchor="start">272.478</text>
<text x="318" y="503" font-size="11" text-anchor="end">WRONG REVERSED NFW</text>
<rect x="330" y="482" width="542.341" height="28" rx="3" fill="#9aa5b1"/>
<text x="880.341" y="502" font-size="11" text-anchor="start">592.777</text>
<text x="615" y="610" font-size="12" text-anchor="middle">Equal-cluster/equal-observable holdout score (lower is better; log scale)</text>
</g>
</svg>
